<?xml version="1.0" encoding="UTF-8" standalone="no"?>
<!-- Created with Inkscape (http://www.inkscape.org/) -->

<svg
        xmlns:osb="http://www.openswatchbook.org/uri/2009/osb"
        xmlns:dc="http://purl.org/dc/elements/1.1/"
        xmlns:cc="http://creativecommons.org/ns#"
        xmlns:rdf="http://www.w3.org/1999/02/22-rdf-syntax-ns#"
        xmlns="http://www.w3.org/2000/svg"
        xmlns:xlink="http://www.w3.org/1999/xlink"
        xmlns:sodipodi="http://sodipodi.sourceforge.net/DTD/sodipodi-0.dtd"
        xmlns:inkscape="http://www.inkscape.org/namespaces/inkscape"
        width="200"
        height="120"
        viewBox="0 0 52.916665 31.750001"
        version="1.1"
        id="svg8"
        inkscape:version="0.92.4 (5da689c313, 2019-01-14)"
        sodipodi:docname="logo.svg">
  <defs
     id="defs2">
    <linearGradient
       id="linearGradient899"
       osb:paint="solid">
      <stop
         style="stop-color:#000000;stop-opacity:1;"
         offset="0"
         id="stop897" />
    </linearGradient>
    <linearGradient
       inkscape:collect="always"
       xlink:href="#linearGradient899"
       id="linearGradient901"
       x1="3.5352253"
       y1="276.21649"
       x2="46.7946"
       y2="276.21649"
       gradientUnits="userSpaceOnUse" />
  </defs>
  <sodipodi:namedview
     id="base"
     pagecolor="#ffffff"
     bordercolor="#666666"
     borderopacity="1.0"
     inkscape:pageopacity="0.0"
     inkscape:pageshadow="2"
     inkscape:zoom="3.959798"
     inkscape:cx="113.07665"
     inkscape:cy="45.395589"
     inkscape:document-units="mm"
     inkscape:current-layer="layer1"
     showgrid="false"
     units="px"
     inkscape:pagecheckerboard="true"
     inkscape:window-width="1920"
     inkscape:window-height="1015"
     inkscape:window-x="0"
     inkscape:window-y="0"
     inkscape:window-maximized="1" />
  <metadata
     id="metadata5">
    <rdf:RDF>
      <cc:Work
         rdf:about="">
        <dc:format>image/svg+xml</dc:format>
        <dc:type
           rdf:resource="http://purl.org/dc/dcmitype/StillImage" />
        <dc:title></dc:title>
      </cc:Work>
    </rdf:RDF>
  </metadata>
  <g
     inkscape:label="Layer 1"
     inkscape:groupmode="layer"
     id="layer1"
     transform="translate(0,-265.24998)">
    <path
       style="clip-rule:evenodd;fill:#d40000;fill-rule:evenodd;stroke-width:0.20672259"
       d="m 19.732038,290.78116 c 5.677843,0.77521 11.254806,1.53656 16.942571,2.3128 -1.937817,-3.22611 -3.825815,-6.36975 -5.728902,-9.53899 z"
       id="path927" />
    <path
       style="clip-rule:evenodd;fill:#aa0000;fill-rule:evenodd;stroke-width:0.20672259"
       d="m 38.277123,272.92384 c -0.500476,0.75165 -1.001985,1.50266 -1.50184,2.25472 -1.716624,2.58258 -3.433041,5.16517 -5.148013,7.749 -0.0955,0.14387 -0.219332,0.25799 -0.08475,0.47981 1.657089,2.73637 3.301154,5.48083 4.949353,8.22279 0.260057,0.43308 0.523009,0.86452 0.859347,1.28004 0.333236,-6.65503 0.666266,-13.31025 0.999296,-19.96528 z"
       id="path925" />
    <path
       style="clip-rule:evenodd;fill:#d40000;fill-rule:evenodd;stroke-width:0.20672259"
       d="m 15.655675,281.4559 c 0.07753,0.0733 0.271013,0.11617 0.361145,0.0717 1.58949,-0.7812 3.189109,-1.54504 4.74387,-2.39054 0.50709,-0.27556 0.896969,-0.76963 1.333773,-1.17026 1.446439,-1.32653 2.890603,-2.65575 4.334147,-3.9852 0.08828,-0.0817 0.192873,-0.16062 0.245587,-0.26357 0.51846,-1.01335 1.028031,-2.03188 1.555587,-3.07975 -0.629057,-0.23649 -1.225451,-0.46781 -1.829288,-0.67825 -0.08187,-0.0286 -0.210857,0.0282 -0.299542,0.0774 -1.39765,0.7808 -2.821556,1.52004 -4.174761,2.37152 -0.677017,0.42606 -1.228554,1.05388 -1.828049,1.60067 -0.966221,0.88187 -1.931204,1.76582 -2.883366,2.66299 -0.252615,0.23815 -0.482904,0.5102 -0.679704,0.79671 -0.651177,0.94824 -1.282921,1.91011 -1.943607,2.89928 0.369207,0.38183 0.704924,0.74688 1.064208,1.08716 z"
       id="path923" />
    <path
       style="clip-rule:evenodd;fill:#aa0000;fill-rule:evenodd;stroke-width:0.20672259"
       d="m 21.464994,280.15955 c -0.790714,3.34042 -1.576673,6.66203 -2.388886,10.09281 3.80845,-2.45401 7.529043,-4.85137 11.225037,-7.23261 -2.94125,-0.95194 -5.872989,-1.90102 -8.836151,-2.8602 z"
       id="path921" />
    <path
       style="clip-rule:evenodd;fill:#ff8080;fill-rule:evenodd;stroke-width:0.20672259"
       d="m 37.306354,272.95609 c -3.217845,0.53768 -6.358788,1.06235 -9.540248,1.59383 1.08364,2.63593 2.145573,5.21891 3.237689,7.8753 2.112911,-3.17506 4.184066,-6.28643 6.302559,-9.46913 z"
       id="path919" />
    <path
       style="clip-rule:evenodd;fill:#aa0000;fill-rule:evenodd;stroke-width:0.20672259"
       d="m 21.59771,279.47633 c 2.89763,0.94058 5.737585,1.86255 8.660024,2.81142 -1.085294,-2.64399 -2.133378,-5.19556 -3.203168,-7.80109 -1.82226,1.66598 -3.617232,3.30736 -5.456856,4.98967 z"
       id="path917" />
    <path
       style="clip-rule:evenodd;fill:#ff2a2a;fill-rule:evenodd;stroke-width:0.20672259"
       d="m 15.775368,283.40385 c -1.027618,2.45648 -2.0203,4.82944 -3.030968,7.2452 1.942367,-0.0575 3.825195,-0.11301 5.772729,-0.17054 -0.914335,-2.35911 -1.810683,-4.67193 -2.741761,-7.07466 z"
       id="path915" />
    <path
       style="clip-rule:evenodd;fill:#aa0000;fill-rule:evenodd;stroke-width:0.20672259"
       d="m 18.585347,288.79848 0.07153,-0.0156 c 0.693141,-2.88193 1.396205,-5.74401 2.103816,-8.73858 -1.578535,0.82048 -3.084302,1.60293 -4.631207,2.40707 0.789474,2.05192 1.631249,4.21651 2.455865,6.34722 z"
       id="path913" />
    <path
       style="clip-rule:evenodd;fill:#aa0000;fill-rule:evenodd;stroke-width:0.20672259"
       d="m 36.141679,272.48868 c -0.921776,-0.24414 -1.843553,-0.4891 -2.765742,-0.73158 -1.325505,-0.34854 -2.652045,-0.69274 -3.976723,-1.04437 -0.165585,-0.0441 -0.285278,-0.0728 -0.382644,0.12674 -0.468227,0.95919 -0.950923,1.91115 -1.426592,2.86683 -0.01468,0.0295 -0.01153,0.0678 -0.02294,0.14202 2.870551,-0.43495 5.721875,-0.86721 8.572786,-1.29926 z"
       id="path911" />
    <path
       style="clip-rule:evenodd;fill:#ff0000;fill-rule:evenodd;stroke-width:0.20672259"
       d="m 30.793971,270.30693 7.51292,2.0784 c -0.43081,-1.22774 -0.830404,-2.36615 -1.241369,-3.53703 l -6.260593,1.38815 z"
       id="path909" />
    <path
       style="clip-rule:evenodd;fill:#aa0000;fill-rule:evenodd;stroke-width:0.20672259"
       d="m 19.222261,291.33456 c -0.930458,-0.10725 -1.885725,-0.008 -2.829413,0.008 -0.77521,0.0137 -1.55042,0.0426 -2.32563,0.0669 -0.07979,0.003 -0.159382,0.0185 -0.238971,0.10463 6.409022,0.59247 12.817836,1.18493 19.22665,1.77782 l 0.01304,-0.0855 c -2.054408,-0.28051 -4.109023,-0.56104 -6.163434,-0.84135 -2.560052,-0.34957 -5.115763,-0.73408 -7.682224,-1.0299 z"
       id="path907" />
    <path
       style="clip-rule:evenodd;fill:#aa0000;fill-rule:evenodd;stroke-width:0.20672259"
       d="m 12.871122,288.43775 c 0.825857,-1.91632 1.648198,-3.83388 2.477364,-5.74874 0.08289,-0.19206 0.07648,-0.3225 -0.08579,-0.47712 -0.346881,-0.33014 -0.669161,-0.68592 -1.048291,-1.08033 -0.512464,2.53028 -1.012321,4.99793 -1.512589,7.46537 l 0.05602,0.0262 c 0.03824,-0.0614 0.08497,-0.11946 0.113283,-0.18543 z"
       id="path905" />
    <path
       style="clip-rule:evenodd;fill:#aa0000;fill-rule:evenodd;stroke-width:0.20672259"
       d="m 29.14846,269.80108 c 1.392689,-0.35927 2.805639,-0.64021 4.210318,-0.9536 0.09096,-0.0205 0.179849,-0.0505 0.26936,-0.0761 l -0.01386,-0.0687 c -1.978541,0.26606 -3.956876,0.53232 -6.035059,0.81201 0.566627,0.24744 1.003225,0.43226 1.569231,0.28631 z"
       id="path81" />
    <text
       xml:space="preserve"
       style="font-style:italic;font-variant:normal;font-weight:500;font-stretch:normal;font-size:19.75555611px;line-height:1.25;font-family:'URW Chancery L';-inkscape-font-specification:'URW Chancery L, Medium Italic';font-variant-ligatures:normal;font-variant-caps:normal;font-variant-numeric:normal;font-feature-settings:normal;text-align:start;letter-spacing:0px;word-spacing:0px;writing-mode:lr-tb;text-anchor:start;fill:#ff5555;fill-opacity:1;stroke:#ffffff;stroke-width:0.26458332;stroke-opacity:1"
       x="-1.0690777"
       y="284.57193"
       id="text12"><tspan
         sodipodi:role="line"
         id="tspan10"
         x="-1.0690777"
         y="284.57193"
         style="font-style:italic;font-variant:normal;font-weight:500;font-stretch:normal;font-size:19.75555611px;font-family:'URW Chancery L';-inkscape-font-specification:'URW Chancery L, Medium Italic';font-variant-ligatures:normal;font-variant-caps:normal;font-variant-numeric:normal;font-feature-settings:normal;text-align:start;writing-mode:lr-tb;text-anchor:start;fill:#ff5555;stroke:#ffffff;stroke-width:0.26458332;stroke-opacity:1">Genesis</tspan></text>
  </g>
</svg>
